<svg viewBox="0 0 32 32" xmlns="http://www.w3.org/2000/svg">
  <path
    class="fill-white"
    d="m16 25c-4.26 0-8.3-1.81-11.4-5.09-0.377-0.403-0.355-1.04 0.048-1.41 0.404-0.377 1.04-0.355 1.41 0.048 2.68 2.87 6.2 4.45 9.9 4.45 4.76 0 9.15-2.6 11.8-7-2.69-4.4-7.08-7-11.8-7-4.94 0-9.47 2.8-12.1 7.49-0.272 0.481-0.884 0.651-1.36 0.377-0.481-0.272-0.649-0.882-0.377-1.36 3.02-5.33 8.2-8.51 13.9-8.51 5.67 0 10.9 3.18 13.9 8.51 0.173 0.306 0.173 0.68 0 0.985-3.02 5.33-8.2 8.51-13.9 8.51z"
  />

  <path
    class="fill-white"
    d="m16 21c-2.76 0-5-2.24-5-5s2.24-5 5-5 5 2.24 5 5-2.24 5-5 5zm0-8c-1.65 0-3 1.35-3 3s1.35 3 3 3 3-1.35 3-3-1.35-3-3-3z"
  />
</svg>
